<svg id="instagram" xmlns="http://www.w3.org/2000/svg" xmlns:xlink="http://www.w3.org/1999/xlink" width="18.844" height="18.844" viewBox="0 0 18.844 18.844">
  <defs>
    <linearGradient id="linear-gradient" x1="0.5" x2="0.5" y2="1" gradientUnits="objectBoundingBox">
      <stop offset="0" stop-color="#ca63ff"/>
      <stop offset="1" stop-color="#ffb163"/>
    </linearGradient>
  </defs>
  <g id="Group_209" data-name="Group 209" transform="translate(0 0)">
    <path id="Path_292" data-name="Path 292" d="M9.422,0C6.865,0,6.544.012,5.539.057A6.942,6.942,0,0,0,3.251.495,4.613,4.613,0,0,0,1.582,1.582,4.625,4.625,0,0,0,.495,3.251,6.9,6.9,0,0,0,.057,5.535C.012,6.542,0,6.863,0,9.423S.012,12.3.057,13.306a6.941,6.941,0,0,0,.438,2.287,4.824,4.824,0,0,0,2.755,2.756,6.917,6.917,0,0,0,2.287.438c1.006.045,1.326.057,3.885.057s2.878-.012,3.884-.057a6.955,6.955,0,0,0,2.288-.438,4.824,4.824,0,0,0,2.755-2.756,6.972,6.972,0,0,0,.438-2.287c.045-1,.057-1.325.057-3.884s-.012-2.88-.057-3.885a6.964,6.964,0,0,0-.438-2.286,4.624,4.624,0,0,0-1.087-1.669A4.606,4.606,0,0,0,15.593.495,6.931,6.931,0,0,0,13.3.057C12.3.012,11.98,0,9.42,0h0ZM8.577,1.7h.846c2.516,0,2.814.008,3.806.054a5.221,5.221,0,0,1,1.75.324,2.923,2.923,0,0,1,1.084.705,2.911,2.911,0,0,1,.7,1.084,5.175,5.175,0,0,1,.324,1.749c.046.993.055,1.291.055,3.805s-.009,2.814-.055,3.806a5.212,5.212,0,0,1-.324,1.749,3.123,3.123,0,0,1-1.789,1.787,5.183,5.183,0,0,1-1.749.325c-.993.045-1.291.055-3.806.055s-2.815-.011-3.808-.055a5.2,5.2,0,0,1-1.749-.325,2.918,2.918,0,0,1-1.084-.7,2.921,2.921,0,0,1-.707-1.084,5.205,5.205,0,0,1-.324-1.749c-.045-.993-.054-1.291-.054-3.808s.009-2.812.054-3.805a5.213,5.213,0,0,1,.325-1.75,2.923,2.923,0,0,1,.705-1.084,2.911,2.911,0,0,1,1.084-.7,5.2,5.2,0,0,1,1.749-.325c.869-.04,1.206-.052,2.962-.053v0Zm5.875,1.564a1.131,1.131,0,1,0,1.131,1.131,1.131,1.131,0,0,0-1.131-1.131ZM9.423,4.584a4.839,4.839,0,1,0,4.839,4.839A4.838,4.838,0,0,0,9.423,4.584Zm0,1.7A3.141,3.141,0,1,1,6.282,9.422,3.141,3.141,0,0,1,9.423,6.281Z" transform="translate(0 0)" fill="url(#linear-gradient)"/>
  </g>
</svg>
