<svg id="website" xmlns="http://www.w3.org/2000/svg" width="18.844" height="18.844" viewBox="0 0 18.844 18.844">
  <path id="Path_293" data-name="Path 293" d="M16.212,5.913a1.549,1.549,0,0,0-.276-.037,1.674,1.674,0,0,0-1.178.461,21.264,21.264,0,0,0-2.1-.81,27.818,27.818,0,0,0-3.349-.847,1.824,1.824,0,0,0-.5-.737A20.357,20.357,0,0,1,10.048,0a9.474,9.474,0,0,1,7.4,4.439A18.687,18.687,0,0,0,16.212,5.913ZM7.674,3.518a1.7,1.7,0,0,0-.9.258,21.568,21.568,0,0,0-3-1.879A9.175,9.175,0,0,1,8.888,0,19.079,19.079,0,0,0,7.729,3.518ZM1.288,4.66A9.886,9.886,0,0,1,2.871,2.671,22.689,22.689,0,0,1,5.465,4.255,15.506,15.506,0,0,0,1.288,4.66ZM5.907,5.4a1.706,1.706,0,0,0,.4,1,1.735,1.735,0,0,0,.893.58q-.11,1.289-.11,2.45,0,.81.055,1.86a1.758,1.758,0,0,0-.718.442,16.953,16.953,0,0,1-1.914-.884,1.836,1.836,0,0,0,.2-.829A1.706,1.706,0,0,0,4.2,8.768a1.7,1.7,0,0,0-1.251-.516A1.691,1.691,0,0,0,1.6,8.878,12.729,12.729,0,0,1,.221,7.423a8.275,8.275,0,0,1,.5-1.566A16,16,0,0,1,5.907,5.4ZM1.2,10.168a1.709,1.709,0,0,0,.561,1.151,1.689,1.689,0,0,0,1.187.47,1.509,1.509,0,0,0,.442-.074,16.367,16.367,0,0,0,2.521,1.179v.074a1.7,1.7,0,0,0,.488,1.225,1.737,1.737,0,0,0,1.205.543,19.886,19.886,0,0,0,1.288,4.108A9.278,9.278,0,0,1,5.41,17.95,9.311,9.311,0,0,1,.7,12.968,9.183,9.183,0,0,1,0,9.431q0-.018.018-.5A10.074,10.074,0,0,0,1.2,10.168ZM9.219,13.8a21.658,21.658,0,0,0,2.668.313,2.049,2.049,0,0,0,.4.682,23,23,0,0,0-.515,3.758,9.81,9.81,0,0,1-1.73.295A20.919,20.919,0,0,1,8.7,14.386,1.5,1.5,0,0,0,9.219,13.8Zm5.7.884a1.72,1.72,0,0,0,.331-.626,24.48,24.48,0,0,0,2.595-.35,9.368,9.368,0,0,1-2.429,3A16.173,16.173,0,0,0,14.924,14.681Zm-3-1.75A17.522,17.522,0,0,1,9.385,12.6a1.686,1.686,0,0,0-1.049-1.271q-.074-1.087-.074-1.9,0-1.216.11-2.524a.179.179,0,0,0,.092-.037.19.19,0,0,1,.074-.037q.718.7,1.251,1.289a17.787,17.787,0,0,1,2.724,4.016A1.8,1.8,0,0,0,11.925,12.931Zm1.638,2.395q.037,0,.2-.018a16.359,16.359,0,0,1,.46,2.229,10.585,10.585,0,0,1-1.288.626,22.622,22.622,0,0,1,.442-2.855Q13.526,15.326,13.562,15.326Zm-.092-4.4q-.018.037-.046.111t-.046.111a19.874,19.874,0,0,0-2.724-3.813q-.57-.645-1.362-1.4.018,0,.028-.028l.009-.028a26.787,26.787,0,0,1,2.963.774,18.475,18.475,0,0,1,1.9.737,1.553,1.553,0,0,0-.037.276,1.7,1.7,0,0,0,.331,1.013A19.684,19.684,0,0,0,13.47,10.923Zm.865,1.068q.221-.645.221-.663a21.055,21.055,0,0,1,.92-1.971,1.561,1.561,0,0,0,.46.074,1.684,1.684,0,0,0,1.123-.424,18.375,18.375,0,0,1,1.767,1.4,9.319,9.319,0,0,1-.442,2.026,25.182,25.182,0,0,1-3.184.442A1.645,1.645,0,0,0,14.335,11.991ZM17.7,7.644a1.708,1.708,0,0,0-.4-1.105,11.783,11.783,0,0,1,.773-.9,9.288,9.288,0,0,1,.773,3.113q-.607-.461-1.178-.829A1.32,1.32,0,0,0,17.7,7.644Z" fill="#38464c"/>
</svg>
